<!-- Generated by scripts/art/tank-raster-pipeline.mjs make-sheet. -->
<svg xmlns="http://www.w3.org/2000/svg" width="480" height="384" viewBox="0 0 480 384" shape-rendering="crispEdges">
<rect x="0" y="0" width="480" height="384" fill="#ff00ff" />
<g fill="none" shape-rendering="crispEdges">
<line x1="30" y1="0" x2="30" y2="192" stroke="#80f6ff" stroke-width="1" opacity="0.32" />
<line x1="0" y1="24" x2="240" y2="24" stroke="#80f6ff" stroke-width="1" opacity="0.32" />
<line x1="60" y1="0" x2="60" y2="192" stroke="#80f6ff" stroke-width="1" opacity="0.32" />
<line x1="0" y1="48" x2="240" y2="48" stroke="#80f6ff" stroke-width="1" opacity="0.32" />
<line x1="90" y1="0" x2="90" y2="192" stroke="#80f6ff" stroke-width="1" opacity="0.32" />
<line x1="0" y1="72" x2="240" y2="72" stroke="#80f6ff" stroke-width="1" opacity="0.32" />
<line x1="120" y1="0" x2="120" y2="192" stroke="#fff4a3" stroke-width="1" opacity="0.66" />
<line x1="0" y1="96" x2="240" y2="96" stroke="#fff4a3" stroke-width="1" opacity="0.66" />
<line x1="150" y1="0" x2="150" y2="192" stroke="#80f6ff" stroke-width="1" opacity="0.32" />
<line x1="0" y1="120" x2="240" y2="120" stroke="#80f6ff" stroke-width="1" opacity="0.32" />
<line x1="180" y1="0" x2="180" y2="192" stroke="#80f6ff" stroke-width="1" opacity="0.32" />
<line x1="0" y1="144" x2="240" y2="144" stroke="#80f6ff" stroke-width="1" opacity="0.32" />
<line x1="210" y1="0" x2="210" y2="192" stroke="#80f6ff" stroke-width="1" opacity="0.32" />
<line x1="0" y1="168" x2="240" y2="168" stroke="#80f6ff" stroke-width="1" opacity="0.32" />
<rect x="1" y="1" width="238" height="190" stroke="#00e5ff" stroke-width="2" opacity="0.9" />
<rect x="60" y="48" width="120" height="96" stroke="#fff4a3" stroke-width="1" opacity="0.45" />
</g>
<g fill="none" shape-rendering="crispEdges">
<line x1="270" y1="0" x2="270" y2="192" stroke="#80f6ff" stroke-width="1" opacity="0.32" />
<line x1="240" y1="24" x2="480" y2="24" stroke="#80f6ff" stroke-width="1" opacity="0.32" />
<line x1="300" y1="0" x2="300" y2="192" stroke="#80f6ff" stroke-width="1" opacity="0.32" />
<line x1="240" y1="48" x2="480" y2="48" stroke="#80f6ff" stroke-width="1" opacity="0.32" />
<line x1="330" y1="0" x2="330" y2="192" stroke="#80f6ff" stroke-width="1" opacity="0.32" />
<line x1="240" y1="72" x2="480" y2="72" stroke="#80f6ff" stroke-width="1" opacity="0.32" />
<line x1="360" y1="0" x2="360" y2="192" stroke="#fff4a3" stroke-width="1" opacity="0.66" />
<line x1="240" y1="96" x2="480" y2="96" stroke="#fff4a3" stroke-width="1" opacity="0.66" />
<line x1="390" y1="0" x2="390" y2="192" stroke="#80f6ff" stroke-width="1" opacity="0.32" />
<line x1="240" y1="120" x2="480" y2="120" stroke="#80f6ff" stroke-width="1" opacity="0.32" />
<line x1="420" y1="0" x2="420" y2="192" stroke="#80f6ff" stroke-width="1" opacity="0.32" />
<line x1="240" y1="144" x2="480" y2="144" stroke="#80f6ff" stroke-width="1" opacity="0.32" />
<line x1="450" y1="0" x2="450" y2="192" stroke="#80f6ff" stroke-width="1" opacity="0.32" />
<line x1="240" y1="168" x2="480" y2="168" stroke="#80f6ff" stroke-width="1" opacity="0.32" />
<rect x="241" y="1" width="238" height="190" stroke="#00e5ff" stroke-width="2" opacity="0.9" />
<rect x="300" y="48" width="120" height="96" stroke="#fff4a3" stroke-width="1" opacity="0.45" />
</g>
<g fill="none" shape-rendering="crispEdges">
<line x1="30" y1="192" x2="30" y2="384" stroke="#80f6ff" stroke-width="1" opacity="0.32" />
<line x1="0" y1="216" x2="240" y2="216" stroke="#80f6ff" stroke-width="1" opacity="0.32" />
<line x1="60" y1="192" x2="60" y2="384" stroke="#80f6ff" stroke-width="1" opacity="0.32" />
<line x1="0" y1="240" x2="240" y2="240" stroke="#80f6ff" stroke-width="1" opacity="0.32" />
<line x1="90" y1="192" x2="90" y2="384" stroke="#80f6ff" stroke-width="1" opacity="0.32" />
<line x1="0" y1="264" x2="240" y2="264" stroke="#80f6ff" stroke-width="1" opacity="0.32" />
<line x1="120" y1="192" x2="120" y2="384" stroke="#fff4a3" stroke-width="1" opacity="0.66" />
<line x1="0" y1="288" x2="240" y2="288" stroke="#fff4a3" stroke-width="1" opacity="0.66" />
<line x1="150" y1="192" x2="150" y2="384" stroke="#80f6ff" stroke-width="1" opacity="0.32" />
<line x1="0" y1="312" x2="240" y2="312" stroke="#80f6ff" stroke-width="1" opacity="0.32" />
<line x1="180" y1="192" x2="180" y2="384" stroke="#80f6ff" stroke-width="1" opacity="0.32" />
<line x1="0" y1="336" x2="240" y2="336" stroke="#80f6ff" stroke-width="1" opacity="0.32" />
<line x1="210" y1="192" x2="210" y2="384" stroke="#80f6ff" stroke-width="1" opacity="0.32" />
<line x1="0" y1="360" x2="240" y2="360" stroke="#80f6ff" stroke-width="1" opacity="0.32" />
<rect x="1" y="193" width="238" height="190" stroke="#00e5ff" stroke-width="2" opacity="0.9" />
<rect x="60" y="240" width="120" height="96" stroke="#fff4a3" stroke-width="1" opacity="0.45" />
</g>
<g fill="none" shape-rendering="crispEdges">
<line x1="270" y1="192" x2="270" y2="384" stroke="#80f6ff" stroke-width="1" opacity="0.32" />
<line x1="240" y1="216" x2="480" y2="216" stroke="#80f6ff" stroke-width="1" opacity="0.32" />
<line x1="300" y1="192" x2="300" y2="384" stroke="#80f6ff" stroke-width="1" opacity="0.32" />
<line x1="240" y1="240" x2="480" y2="240" stroke="#80f6ff" stroke-width="1" opacity="0.32" />
<line x1="330" y1="192" x2="330" y2="384" stroke="#80f6ff" stroke-width="1" opacity="0.32" />
<line x1="240" y1="264" x2="480" y2="264" stroke="#80f6ff" stroke-width="1" opacity="0.32" />
<line x1="360" y1="192" x2="360" y2="384" stroke="#fff4a3" stroke-width="1" opacity="0.66" />
<line x1="240" y1="288" x2="480" y2="288" stroke="#fff4a3" stroke-width="1" opacity="0.66" />
<line x1="390" y1="192" x2="390" y2="384" stroke="#80f6ff" stroke-width="1" opacity="0.32" />
<line x1="240" y1="312" x2="480" y2="312" stroke="#80f6ff" stroke-width="1" opacity="0.32" />
<line x1="420" y1="192" x2="420" y2="384" stroke="#80f6ff" stroke-width="1" opacity="0.32" />
<line x1="240" y1="336" x2="480" y2="336" stroke="#80f6ff" stroke-width="1" opacity="0.32" />
<line x1="450" y1="192" x2="450" y2="384" stroke="#80f6ff" stroke-width="1" opacity="0.32" />
<line x1="240" y1="360" x2="480" y2="360" stroke="#80f6ff" stroke-width="1" opacity="0.32" />
<rect x="241" y="193" width="238" height="190" stroke="#00e5ff" stroke-width="2" opacity="0.9" />
<rect x="300" y="240" width="120" height="96" stroke="#fff4a3" stroke-width="1" opacity="0.45" />
</g>
<g transform="translate(120 96) scale(3 3)">
<rect id="source.part.track.left" x="-25.2" y="-14.4" width="50.4" height="5" fill="#15120f" fill-opacity="0.96" stroke="#100d0a" stroke-width="1.5" stroke-opacity="0.95" />
<rect id="source.part.track.right" x="-25.2" y="9.4" width="50.4" height="5" fill="#15120f" fill-opacity="0.96" stroke="#100d0a" stroke-width="1.5" stroke-opacity="0.95" />
<rect id="source.part.tread.left.0" x="-26.4" y="-14.1" width="2.4" height="4.4" fill="#d8d0b0" fill-opacity="0.35" stroke="#100d0a" stroke-width="1.5" stroke-opacity="0.95" />
<rect id="source.part.tread.left.1" x="-20.4" y="-14.1" width="2.4" height="4.4" fill="#d8d0b0" fill-opacity="0.35" stroke="#100d0a" stroke-width="1.5" stroke-opacity="0.95" />
<rect id="source.part.tread.left.2" x="-14.4" y="-14.1" width="2.4" height="4.4" fill="#d8d0b0" fill-opacity="0.35" stroke="#100d0a" stroke-width="1.5" stroke-opacity="0.95" />
<rect id="source.part.tread.left.3" x="-8.4" y="-14.1" width="2.4" height="4.4" fill="#d8d0b0" fill-opacity="0.35" stroke="#100d0a" stroke-width="1.5" stroke-opacity="0.95" />
<rect id="source.part.tread.left.4" x="-2.4" y="-14.1" width="2.4" height="4.4" fill="#d8d0b0" fill-opacity="0.35" stroke="#100d0a" stroke-width="1.5" stroke-opacity="0.95" />
<rect id="source.part.tread.left.5" x="3.6" y="-14.1" width="2.4" height="4.4" fill="#d8d0b0" fill-opacity="0.35" stroke="#100d0a" stroke-width="1.5" stroke-opacity="0.95" />
<rect id="source.part.tread.left.6" x="9.6" y="-14.1" width="2.4" height="4.4" fill="#d8d0b0" fill-opacity="0.35" stroke="#100d0a" stroke-width="1.5" stroke-opacity="0.95" />
<rect id="source.part.tread.left.7" x="15.6" y="-14.1" width="2.4" height="4.4" fill="#d8d0b0" fill-opacity="0.35" stroke="#100d0a" stroke-width="1.5" stroke-opacity="0.95" />
<rect id="source.part.tread.left.8" x="21.6" y="-14.1" width="2.4" height="4.4" fill="#d8d0b0" fill-opacity="0.35" stroke="#100d0a" stroke-width="1.5" stroke-opacity="0.95" />
<rect id="source.part.tread.right.0" x="-26.4" y="9.7" width="2.4" height="4.4" fill="#d8d0b0" fill-opacity="0.35" stroke="#100d0a" stroke-width="1.5" stroke-opacity="0.95" />
<rect id="source.part.tread.right.1" x="-20.4" y="9.7" width="2.4" height="4.4" fill="#d8d0b0" fill-opacity="0.35" stroke="#100d0a" stroke-width="1.5" stroke-opacity="0.95" />
<rect id="source.part.tread.right.2" x="-14.4" y="9.7" width="2.4" height="4.4" fill="#d8d0b0" fill-opacity="0.35" stroke="#100d0a" stroke-width="1.5" stroke-opacity="0.95" />
<rect id="source.part.tread.right.3" x="-8.4" y="9.7" width="2.4" height="4.4" fill="#d8d0b0" fill-opacity="0.35" stroke="#100d0a" stroke-width="1.5" stroke-opacity="0.95" />
<rect id="source.part.tread.right.4" x="-2.4" y="9.7" width="2.4" height="4.4" fill="#d8d0b0" fill-opacity="0.35" stroke="#100d0a" stroke-width="1.5" stroke-opacity="0.95" />
<rect id="source.part.tread.right.5" x="3.6" y="9.7" width="2.4" height="4.4" fill="#d8d0b0" fill-opacity="0.35" stroke="#100d0a" stroke-width="1.5" stroke-opacity="0.95" />
<rect id="source.part.tread.right.6" x="9.6" y="9.7" width="2.4" height="4.4" fill="#d8d0b0" fill-opacity="0.35" stroke="#100d0a" stroke-width="1.5" stroke-opacity="0.95" />
<rect id="source.part.tread.right.7" x="15.6" y="9.7" width="2.4" height="4.4" fill="#d8d0b0" fill-opacity="0.35" stroke="#100d0a" stroke-width="1.5" stroke-opacity="0.95" />
<rect id="source.part.tread.right.8" x="21.6" y="9.7" width="2.4" height="4.4" fill="#d8d0b0" fill-opacity="0.35" stroke="#100d0a" stroke-width="1.5" stroke-opacity="0.95" />
<polygon id="source.part.hull" points="-23.2,-11.4 19.2,-11.4 25.2,-7.4 25.2,7.4 19.2,11.4 -23.2,11.4 -25.2,7.4 -25.2,-7.4" fill="#5d7896" stroke="#100d0a" stroke-width="1.5" stroke-opacity="0.95" />
<rect id="source.part.hull.shadow" x="-16.49" y="-5.904" width="28.98" height="11.808" fill="#1a1712" fill-opacity="0.24" stroke="#100d0a" stroke-width="1.5" stroke-opacity="0.95" />
<rect id="source.part.hull.nose" x="14.7" y="-9.72" width="7" height="19.44" fill="#6381a0" fill-opacity="0.95" stroke="#100d0a" stroke-width="1.5" stroke-opacity="0.95" />
<rect id="source.part.hull.noseShadow" x="20.7" y="-8.64" width="3" height="17.28" fill="#1a1712" fill-opacity="0.22" stroke="#100d0a" stroke-width="1.5" stroke-opacity="0.95" />
<line id="source.part.barrel" x1="0" y1="0" x2="33.2" y2="0" stroke="#241d17" stroke-width="5" opacity="0.95" />
<rect id="source.part.coaxBarrel" x="11.4" y="-6.0" width="5.2" height="0.9" fill="#74787d" stroke="#1a1712" stroke-width="0.6" opacity="0.95" />
<rect id="source.part.turret" x="-8.072" y="-6.48" width="18.144" height="12.96" fill="#6b8cac" stroke="#1a1712" stroke-width="2" stroke-opacity="0.95" />
<line id="source.part.noseTick" x1="18.2" y1="0" x2="23.2" y2="0" stroke="#d8d0b0" stroke-width="2" opacity="0.75" />
</g>
<g transform="translate(361.916451 134.009612) scale(3.194085 3.194085)">
<rect id="source.part.tread.left.0" x="-26.4" y="-14.1" width="2.4" height="4.4" fill="#d8d0b0" fill-opacity="0.35" stroke="#100d0a" stroke-width="1.5" stroke-opacity="0.95" />
<rect id="source.part.tread.left.1" x="-20.4" y="-14.1" width="2.4" height="4.4" fill="#d8d0b0" fill-opacity="0.35" stroke="#100d0a" stroke-width="1.5" stroke-opacity="0.95" />
<rect id="source.part.tread.left.2" x="-14.4" y="-14.1" width="2.4" height="4.4" fill="#d8d0b0" fill-opacity="0.35" stroke="#100d0a" stroke-width="1.5" stroke-opacity="0.95" />
<rect id="source.part.tread.left.3" x="-8.4" y="-14.1" width="2.4" height="4.4" fill="#d8d0b0" fill-opacity="0.35" stroke="#100d0a" stroke-width="1.5" stroke-opacity="0.95" />
<rect id="source.part.tread.left.4" x="-2.4" y="-14.1" width="2.4" height="4.4" fill="#d8d0b0" fill-opacity="0.35" stroke="#100d0a" stroke-width="1.5" stroke-opacity="0.95" />
<rect id="source.part.tread.left.5" x="3.6" y="-14.1" width="2.4" height="4.4" fill="#d8d0b0" fill-opacity="0.35" stroke="#100d0a" stroke-width="1.5" stroke-opacity="0.95" />
<rect id="source.part.tread.left.6" x="9.6" y="-14.1" width="2.4" height="4.4" fill="#d8d0b0" fill-opacity="0.35" stroke="#100d0a" stroke-width="1.5" stroke-opacity="0.95" />
<rect id="source.part.tread.left.7" x="15.6" y="-14.1" width="2.4" height="4.4" fill="#d8d0b0" fill-opacity="0.35" stroke="#100d0a" stroke-width="1.5" stroke-opacity="0.95" />
<rect id="source.part.tread.left.8" x="21.6" y="-14.1" width="2.4" height="4.4" fill="#d8d0b0" fill-opacity="0.35" stroke="#100d0a" stroke-width="1.5" stroke-opacity="0.95" />
</g>
<g transform="translate(120 288) scale(3.266541 3.266541)">
<polygon id="source.part.hull" points="-23.2,-11.4 19.2,-11.4 25.2,-7.4 25.2,7.4 19.2,11.4 -23.2,11.4 -25.2,7.4 -25.2,-7.4" fill="#5d7896" stroke="#100d0a" stroke-width="1.5" stroke-opacity="0.95" />
<rect id="source.part.hull.shadow" x="-16.49" y="-5.904" width="28.98" height="11.808" fill="#1a1712" fill-opacity="0.24" stroke="#100d0a" stroke-width="1.5" stroke-opacity="0.95" />
<rect id="source.part.hull.nose" x="14.7" y="-9.72" width="7" height="19.44" fill="#6381a0" fill-opacity="0.95" stroke="#100d0a" stroke-width="1.5" stroke-opacity="0.95" />
<rect id="source.part.hull.noseShadow" x="20.7" y="-8.64" width="3" height="17.28" fill="#1a1712" fill-opacity="0.22" stroke="#100d0a" stroke-width="1.5" stroke-opacity="0.95" />
<line id="source.part.noseTick" x1="18.2" y1="0" x2="23.2" y2="0" stroke="#d8d0b0" stroke-width="2" opacity="0.75" />
</g>
<g transform="translate(309.736538 288) scale(3.775234 3.775234)">
<line id="source.part.barrel" x1="0" y1="0" x2="33.2" y2="0" stroke="#241d17" stroke-width="5" opacity="0.95" />
<rect id="source.part.coaxBarrel" x="11.4" y="-6.0" width="5.2" height="0.9" fill="#74787d" stroke="#1a1712" stroke-width="0.6" opacity="0.95" />
<rect id="source.part.turret" x="-8.072" y="-6.48" width="18.144" height="12.96" fill="#6b8cac" stroke="#1a1712" stroke-width="2" stroke-opacity="0.95" />
</g>
</svg>
