<!-- Generated by scripts/art/tank-raster-pipeline.mjs make-sheet. -->
<svg xmlns="http://www.w3.org/2000/svg" width="720" height="384" viewBox="0 0 720 384" shape-rendering="crispEdges">
<rect x="0" y="0" width="720" height="384" fill="#ff00ff" />
<g transform="translate(120 96) scale(3 3)">
<rect id="source.part.track.left" x="-25.2" y="-14.4" width="50.4" height="5" fill="#15120f" fill-opacity="0.96" stroke="#100d0a" stroke-width="1.5" stroke-opacity="0.95" />
<rect id="source.part.track.right" x="-25.2" y="9.4" width="50.4" height="5" fill="#15120f" fill-opacity="0.96" stroke="#100d0a" stroke-width="1.5" stroke-opacity="0.95" />
<rect id="source.part.tread.left.0" x="-26.4" y="-14.1" width="2.4" height="4.4" fill="#d8d0b0" fill-opacity="0.35" stroke="#100d0a" stroke-width="1.5" stroke-opacity="0.95" />
<rect id="source.part.tread.left.1" x="-20.4" y="-14.1" width="2.4" height="4.4" fill="#d8d0b0" fill-opacity="0.35" stroke="#100d0a" stroke-width="1.5" stroke-opacity="0.95" />
<rect id="source.part.tread.left.2" x="-14.4" y="-14.1" width="2.4" height="4.4" fill="#d8d0b0" fill-opacity="0.35" stroke="#100d0a" stroke-width="1.5" stroke-opacity="0.95" />
<rect id="source.part.tread.left.3" x="-8.4" y="-14.1" width="2.4" height="4.4" fill="#d8d0b0" fill-opacity="0.35" stroke="#100d0a" stroke-width="1.5" stroke-opacity="0.95" />
<rect id="source.part.tread.left.4" x="-2.4" y="-14.1" width="2.4" height="4.4" fill="#d8d0b0" fill-opacity="0.35" stroke="#100d0a" stroke-width="1.5" stroke-opacity="0.95" />
<rect id="source.part.tread.left.5" x="3.6" y="-14.1" width="2.4" height="4.4" fill="#d8d0b0" fill-opacity="0.35" stroke="#100d0a" stroke-width="1.5" stroke-opacity="0.95" />
<rect id="source.part.tread.left.6" x="9.6" y="-14.1" width="2.4" height="4.4" fill="#d8d0b0" fill-opacity="0.35" stroke="#100d0a" stroke-width="1.5" stroke-opacity="0.95" />
<rect id="source.part.tread.left.7" x="15.6" y="-14.1" width="2.4" height="4.4" fill="#d8d0b0" fill-opacity="0.35" stroke="#100d0a" stroke-width="1.5" stroke-opacity="0.95" />
<rect id="source.part.tread.left.8" x="21.6" y="-14.1" width="2.4" height="4.4" fill="#d8d0b0" fill-opacity="0.35" stroke="#100d0a" stroke-width="1.5" stroke-opacity="0.95" />
<rect id="source.part.tread.right.0" x="-26.4" y="9.7" width="2.4" height="4.4" fill="#d8d0b0" fill-opacity="0.35" stroke="#100d0a" stroke-width="1.5" stroke-opacity="0.95" />
<rect id="source.part.tread.right.1" x="-20.4" y="9.7" width="2.4" height="4.4" fill="#d8d0b0" fill-opacity="0.35" stroke="#100d0a" stroke-width="1.5" stroke-opacity="0.95" />
<rect id="source.part.tread.right.2" x="-14.4" y="9.7" width="2.4" height="4.4" fill="#d8d0b0" fill-opacity="0.35" stroke="#100d0a" stroke-width="1.5" stroke-opacity="0.95" />
<rect id="source.part.tread.right.3" x="-8.4" y="9.7" width="2.4" height="4.4" fill="#d8d0b0" fill-opacity="0.35" stroke="#100d0a" stroke-width="1.5" stroke-opacity="0.95" />
<rect id="source.part.tread.right.4" x="-2.4" y="9.7" width="2.4" height="4.4" fill="#d8d0b0" fill-opacity="0.35" stroke="#100d0a" stroke-width="1.5" stroke-opacity="0.95" />
<rect id="source.part.tread.right.5" x="3.6" y="9.7" width="2.4" height="4.4" fill="#d8d0b0" fill-opacity="0.35" stroke="#100d0a" stroke-width="1.5" stroke-opacity="0.95" />
<rect id="source.part.tread.right.6" x="9.6" y="9.7" width="2.4" height="4.4" fill="#d8d0b0" fill-opacity="0.35" stroke="#100d0a" stroke-width="1.5" stroke-opacity="0.95" />
<rect id="source.part.tread.right.7" x="15.6" y="9.7" width="2.4" height="4.4" fill="#d8d0b0" fill-opacity="0.35" stroke="#100d0a" stroke-width="1.5" stroke-opacity="0.95" />
<rect id="source.part.tread.right.8" x="21.6" y="9.7" width="2.4" height="4.4" fill="#d8d0b0" fill-opacity="0.35" stroke="#100d0a" stroke-width="1.5" stroke-opacity="0.95" />
<polygon id="source.part.hull" points="-23.2,-11.4 19.2,-11.4 25.2,-7.4 25.2,7.4 19.2,11.4 -23.2,11.4 -25.2,7.4 -25.2,-7.4" fill="#5d7896" stroke="#100d0a" stroke-width="1.5" stroke-opacity="0.95" />
<rect id="source.part.hull.shadow" x="-16.49" y="-5.904" width="28.98" height="11.808" fill="#1a1712" fill-opacity="0.24" stroke="#100d0a" stroke-width="1.5" stroke-opacity="0.95" />
<rect id="source.part.hull.nose" x="14.7" y="-9.72" width="7" height="19.44" fill="#6381a0" fill-opacity="0.95" stroke="#100d0a" stroke-width="1.5" stroke-opacity="0.95" />
<rect id="source.part.hull.noseShadow" x="20.7" y="-8.64" width="3" height="17.28" fill="#1a1712" fill-opacity="0.22" stroke="#100d0a" stroke-width="1.5" stroke-opacity="0.95" />
<line id="source.part.barrel" x1="0" y1="0" x2="33.2" y2="0" stroke="#241d17" stroke-width="5" opacity="0.95" />
<rect id="source.part.coaxBarrel" x="5.2" y="-5.3" width="26.2" height="2.4" fill="#74787d" stroke="#1a1712" stroke-width="1.2" opacity="0.95" />
<rect id="source.part.turret" x="-8.072" y="-6.48" width="18.144" height="12.96" fill="#6b8cac" stroke="#1a1712" stroke-width="2" stroke-opacity="0.95" />
<line id="source.part.noseTick" x1="18.2" y1="0" x2="23.2" y2="0" stroke="#d8d0b0" stroke-width="2" opacity="0.75" />
</g>
<g transform="translate(361.916451 134.009612) scale(3.194085 3.194085)">
<rect id="source.part.track.left" x="-25.2" y="-14.4" width="50.4" height="5" fill="#15120f" fill-opacity="0.96" stroke="#100d0a" stroke-width="1.5" stroke-opacity="0.95" />
<rect id="source.part.tread.left.0" x="-26.4" y="-14.1" width="2.4" height="4.4" fill="#d8d0b0" fill-opacity="0.35" stroke="#100d0a" stroke-width="1.5" stroke-opacity="0.95" />
<rect id="source.part.tread.left.1" x="-20.4" y="-14.1" width="2.4" height="4.4" fill="#d8d0b0" fill-opacity="0.35" stroke="#100d0a" stroke-width="1.5" stroke-opacity="0.95" />
<rect id="source.part.tread.left.2" x="-14.4" y="-14.1" width="2.4" height="4.4" fill="#d8d0b0" fill-opacity="0.35" stroke="#100d0a" stroke-width="1.5" stroke-opacity="0.95" />
<rect id="source.part.tread.left.3" x="-8.4" y="-14.1" width="2.4" height="4.4" fill="#d8d0b0" fill-opacity="0.35" stroke="#100d0a" stroke-width="1.5" stroke-opacity="0.95" />
<rect id="source.part.tread.left.4" x="-2.4" y="-14.1" width="2.4" height="4.4" fill="#d8d0b0" fill-opacity="0.35" stroke="#100d0a" stroke-width="1.5" stroke-opacity="0.95" />
<rect id="source.part.tread.left.5" x="3.6" y="-14.1" width="2.4" height="4.4" fill="#d8d0b0" fill-opacity="0.35" stroke="#100d0a" stroke-width="1.5" stroke-opacity="0.95" />
<rect id="source.part.tread.left.6" x="9.6" y="-14.1" width="2.4" height="4.4" fill="#d8d0b0" fill-opacity="0.35" stroke="#100d0a" stroke-width="1.5" stroke-opacity="0.95" />
<rect id="source.part.tread.left.7" x="15.6" y="-14.1" width="2.4" height="4.4" fill="#d8d0b0" fill-opacity="0.35" stroke="#100d0a" stroke-width="1.5" stroke-opacity="0.95" />
<rect id="source.part.tread.left.8" x="21.6" y="-14.1" width="2.4" height="4.4" fill="#d8d0b0" fill-opacity="0.35" stroke="#100d0a" stroke-width="1.5" stroke-opacity="0.95" />
</g>
<g transform="translate(601.916451 57.990388) scale(3.194085 3.194085)">
<rect id="source.part.track.right" x="-25.2" y="9.4" width="50.4" height="5" fill="#15120f" fill-opacity="0.96" stroke="#100d0a" stroke-width="1.5" stroke-opacity="0.95" />
<rect id="source.part.tread.right.0" x="-26.4" y="9.7" width="2.4" height="4.4" fill="#d8d0b0" fill-opacity="0.35" stroke="#100d0a" stroke-width="1.5" stroke-opacity="0.95" />
<rect id="source.part.tread.right.1" x="-20.4" y="9.7" width="2.4" height="4.4" fill="#d8d0b0" fill-opacity="0.35" stroke="#100d0a" stroke-width="1.5" stroke-opacity="0.95" />
<rect id="source.part.tread.right.2" x="-14.4" y="9.7" width="2.4" height="4.4" fill="#d8d0b0" fill-opacity="0.35" stroke="#100d0a" stroke-width="1.5" stroke-opacity="0.95" />
<rect id="source.part.tread.right.3" x="-8.4" y="9.7" width="2.4" height="4.4" fill="#d8d0b0" fill-opacity="0.35" stroke="#100d0a" stroke-width="1.5" stroke-opacity="0.95" />
<rect id="source.part.tread.right.4" x="-2.4" y="9.7" width="2.4" height="4.4" fill="#d8d0b0" fill-opacity="0.35" stroke="#100d0a" stroke-width="1.5" stroke-opacity="0.95" />
<rect id="source.part.tread.right.5" x="3.6" y="9.7" width="2.4" height="4.4" fill="#d8d0b0" fill-opacity="0.35" stroke="#100d0a" stroke-width="1.5" stroke-opacity="0.95" />
<rect id="source.part.tread.right.6" x="9.6" y="9.7" width="2.4" height="4.4" fill="#d8d0b0" fill-opacity="0.35" stroke="#100d0a" stroke-width="1.5" stroke-opacity="0.95" />
<rect id="source.part.tread.right.7" x="15.6" y="9.7" width="2.4" height="4.4" fill="#d8d0b0" fill-opacity="0.35" stroke="#100d0a" stroke-width="1.5" stroke-opacity="0.95" />
<rect id="source.part.tread.right.8" x="21.6" y="9.7" width="2.4" height="4.4" fill="#d8d0b0" fill-opacity="0.35" stroke="#100d0a" stroke-width="1.5" stroke-opacity="0.95" />
</g>
<g transform="translate(120 288) scale(3.266541 3.266541)">
<polygon id="source.part.hull" points="-23.2,-11.4 19.2,-11.4 25.2,-7.4 25.2,7.4 19.2,11.4 -23.2,11.4 -25.2,7.4 -25.2,-7.4" fill="#5d7896" stroke="#100d0a" stroke-width="1.5" stroke-opacity="0.95" />
<rect id="source.part.hull.shadow" x="-16.49" y="-5.904" width="28.98" height="11.808" fill="#1a1712" fill-opacity="0.24" stroke="#100d0a" stroke-width="1.5" stroke-opacity="0.95" />
<rect id="source.part.hull.nose" x="14.7" y="-9.72" width="7" height="19.44" fill="#6381a0" fill-opacity="0.95" stroke="#100d0a" stroke-width="1.5" stroke-opacity="0.95" />
<rect id="source.part.hull.noseShadow" x="20.7" y="-8.64" width="3" height="17.28" fill="#1a1712" fill-opacity="0.22" stroke="#100d0a" stroke-width="1.5" stroke-opacity="0.95" />
<line id="source.part.noseTick" x1="18.2" y1="0" x2="23.2" y2="0" stroke="#d8d0b0" stroke-width="2" opacity="0.75" />
</g>
<g transform="translate(309.736538 288) scale(3.775234 3.775234)">
<line id="source.part.barrel" x1="0" y1="0" x2="33.2" y2="0" stroke="#241d17" stroke-width="5" opacity="0.95" />
<rect id="source.part.coaxBarrel" x="5.2" y="-5.3" width="26.2" height="2.4" fill="#74787d" stroke="#1a1712" stroke-width="1.2" opacity="0.95" />
<rect id="source.part.turret" x="-8.072" y="-6.48" width="18.144" height="12.96" fill="#6b8cac" stroke="#1a1712" stroke-width="2" stroke-opacity="0.95" />
</g>
<g transform="translate(901.614545 577.047273) scale(15.709091 15.709091)">
<rect id="source.part.fuelCue.box" x="-23.2" y="-20.9" width="8" height="5" fill="none" stroke="#c9b56a" stroke-width="2" opacity="0.75" />
<line id="source.part.fuelCue.x1" x1="-22.2" y1="-19.4" x2="-16.2" y2="-16.4" stroke="#d47a5f" stroke-width="2" opacity="0.95" />
<line id="source.part.fuelCue.x2" x1="-16.2" y1="-19.4" x2="-22.2" y2="-16.4" stroke="#d47a5f" stroke-width="2" opacity="0.95" />
</g>
</svg>
