<svg viewBox="-40 -32 80 64" data-rts-rig-kind="scout_car" data-rts-rig-version="1" data-rts-origin="center" id="scout-car.authored">
  <polygon id="part.shadow" transform="translate(0 5.18)" points="24.400,0.000 23.569,3.831 21.131,7.400 17.253,10.465 12.200,12.817 6.315,14.296 0.000,14.800 -6.315,14.296 -12.200,12.817 -17.253,10.465 -21.131,7.400 -23.569,3.831 -24.400,0.000 -23.569,-3.831 -21.131,-7.400 -17.253,-10.465 -12.200,-12.817 -6.315,-14.296 -0.000,-14.800 6.315,-14.296 12.200,-12.817 17.253,-10.465 21.131,-7.400 23.569,-3.831" fill="#000000" opacity="0.28" data-rts-animation="facing:transform.rotation:1:0" />
  <polygon id="part.hull" points="-20.400,-10.800 8.160,-10.800 20.400,-6.696 20.400,6.696 8.160,10.800 -20.400,10.800" fill="#5d7896" stroke="#1a1712" stroke-width="2" stroke-opacity="0.95" data-rts-tint="team" data-rts-animation="facing:transform.rotation:1:0" />
  <rect id="part.sideGear.top.fill" x="-17.748" y="-9.612" width="32.232" height="2.376" fill="#15120f" fill-opacity="0.62" stroke="#1a1712" stroke-width="2" stroke-opacity="0.95" data-rts-animation="facing:transform.rotation:1:0" />
  <rect id="part.sideGear.top.outline" x="-17.748" y="-9.612" width="32.232" height="2.376" fill="none" stroke="#1a1712" stroke-width="2" stroke-opacity="0.95" data-rts-animation="facing:transform.rotation:1:0" />
  <rect id="part.sideGear.bottom.fill" x="-17.748" y="7.236" width="32.232" height="2.376" fill="#15120f" fill-opacity="0.62" stroke="#1a1712" stroke-width="2" stroke-opacity="0.95" data-rts-animation="facing:transform.rotation:1:0" />
  <rect id="part.sideGear.bottom.outline" x="-17.748" y="7.236" width="32.232" height="2.376" fill="none" stroke="#1a1712" stroke-width="2" stroke-opacity="0.95" data-rts-animation="facing:transform.rotation:1:0" />
  <rect id="part.cabin" x="-16.320" y="-7.776" width="19.584" height="15.552" fill="#6a88a8" fill-opacity="0.96" stroke="#1a1712" stroke-width="2" stroke-opacity="0.95" data-rts-tint="team-light-08" data-rts-animation="facing:transform.rotation:1:0" />
  <polygon id="part.nose" points="2.040,-7.344 11.832,-6.048 18.360,-4.320 18.360,4.320 11.832,6.048 2.040,7.344" fill="#7190af" fill-opacity="0.95" stroke="#1a1712" stroke-width="2" stroke-opacity="0.95" data-rts-tint="team-light-14" data-rts-animation="facing:transform.rotation:1:0" />
  <rect id="part.darkNose" x="11.832" y="-4.752" width="4.080" height="9.504" fill="#211b14" fill-opacity="0.82" stroke="#1a1712" stroke-width="2" stroke-opacity="0.95" data-rts-animation="facing:transform.rotation:1:0" />
  <rect id="part.darkSlot.top" x="3.978" y="-5.724" width="3.672" height="3.672" fill="#211b14" fill-opacity="0.82" stroke="#1a1712" stroke-width="2" stroke-opacity="0.95" data-rts-animation="facing:transform.rotation:1:0" />
  <rect id="part.darkSlot.bottom" x="3.978" y="2.052" width="3.672" height="3.672" fill="#211b14" fill-opacity="0.82" stroke="#1a1712" stroke-width="2" stroke-opacity="0.95" data-rts-animation="facing:transform.rotation:1:0" />
  <line id="part.hoodLine" x1="9.792" y1="-4.860" x2="9.792" y2="4.860" stroke="#d8d0b0" stroke-width="2" opacity="0.6" data-rts-animation="facing:transform.rotation:1:0" />
  <circle id="part.mount" cx="0" cy="0" r="3.456" fill="#1a1712" fill-opacity="0.9" stroke="#d8d0b0" stroke-width="2" stroke-opacity="0.6" data-rts-animation="scoutMountX:transform.x:1:0;scoutMountY:transform.y:1:0" />
  <rect id="part.gunnerTorso" x="-6.48" y="-3.456" width="5.4" height="6.912" fill="#7190af" fill-opacity="0.98" stroke="#d8d0b0" stroke-width="2" stroke-opacity="0.6" data-rts-tint="team-light-14" data-rts-animation="weaponFacing:transform.rotation:1:0;scoutGunnerX:transform.x:1:0;scoutGunnerY:transform.y:1:0" />
  <circle id="part.gunnerHead" cx="2.16" cy="0" r="1.944" fill="#86a3c2" fill-opacity="0.98" stroke="#d8d0b0" stroke-width="2" stroke-opacity="0.6" data-rts-tint="team-light-24" data-rts-animation="weaponFacing:transform.rotation:1:0;scoutGunnerX:transform.x:1:0;scoutGunnerY:transform.y:1:0" />
  <line id="part.gunnerHand.left" x1="0" y1="3.456" x2="2.16" y2="0" stroke="#d8d0b0" stroke-width="2" opacity="0.86" data-rts-animation="weaponFacing:transform.rotation:1:0;scoutGunnerX:transform.x:1:0;scoutGunnerY:transform.y:1:0" />
  <line id="part.gunnerHand.right" x1="0" y1="-3.456" x2="2.16" y2="0" stroke="#d8d0b0" stroke-width="2" opacity="0.86" data-rts-animation="weaponFacing:transform.rotation:1:0;scoutGunnerX:transform.x:1:0;scoutGunnerY:transform.y:1:0" />
  <line id="part.gunnerBarrel" x1="-3.672" y1="0" x2="15.912" y2="0" stroke="#17130f" stroke-width="3" opacity="0.98" data-rts-animation="weaponFacing:transform.rotation:1:0;scoutGunnerX:transform.x:1:0;scoutGunnerY:transform.y:1:0" />
  <rect id="part.gunnerReceiver" x="1.23" y="-1.62" width="6.264" height="3.24" fill="#32291f" fill-opacity="0.98" stroke="#17130f" stroke-width="3" stroke-opacity="0.98" data-rts-animation="weaponFacing:transform.rotation:1:0;scoutGunnerX:transform.x:1:0;scoutGunnerY:transform.y:1:0" />
  <rect id="part.gunnerShroud" x="5.486" y="-0.972" width="8.856" height="1.944" fill="#241d17" fill-opacity="0.98" stroke="#17130f" stroke-width="3" stroke-opacity="0.98" data-rts-animation="weaponFacing:transform.rotation:1:0;scoutGunnerX:transform.x:1:0;scoutGunnerY:transform.y:1:0" />
  <line id="part.noseTick" x1="14.4" y1="0" x2="18.4" y2="0" stroke="#d8d0b0" stroke-width="2" opacity="0.72" data-rts-animation="facing:transform.rotation:1:0" />
  <circle id="anchor.origin" cx="0" cy="0" r="1" fill="#ffffff" />
  <circle id="anchor.selection" cx="0" cy="0" r="1" fill="#ffffff" />
  <circle id="anchor.hp" cx="0" cy="-24" r="1" fill="#ffffff" />
  <circle id="anchor.muzzle" cx="15.912" cy="0" r="1" fill="#ffffff" data-rts-animation="weaponFacing:transform.rotation:1:0;scoutGunnerX:transform.x:1:0;scoutGunnerY:transform.y:1:0" />
  <rect id="bounds.selection" x="-24" y="-16" width="48" height="32" fill="none" />
  <rect id="bounds.hp" x="-14" y="-28" width="28" height="6" fill="none" />
</svg>
