<svg viewBox="-30 -24 60 48" data-rts-rig-kind="panzerfaust" data-rts-rig-version="1" data-rts-origin="center" id="panzerfaust.authored">
  <ellipse id="part.shadow" cx="0" cy="3.15" rx="9" ry="5.4" fill="#000000" opacity="0.28" />
  <polygon id="part.body" points="6.2,0 1.9,-5.58 -5.3,-4.32 -7.1,0 -5.3,4.32 1.9,5.58" fill="#6d89b8" stroke="#1a1712" stroke-width="2" stroke-opacity="0.95" data-rts-tint="team" data-rts-animation="facing:transform.rotation:1:0" />
  <circle id="part.head" cx="6.2" cy="0" r="3.06" fill="#7b96c4" stroke="#1a1712" stroke-width="2" stroke-opacity="0.95" data-rts-tint="team-light-strong" data-rts-animation="facing:transform.rotation:1:0" />
  <path id="part.shoulders" d="M -6.1 0 L 0.6 -4.3 M -6.1 0 L 0.6 4.3" fill="none" stroke="#1a1712" stroke-width="2" opacity="0.5" data-rts-animation="facing:transform.rotation:1:0" />
  <line id="part.pzf.sling" x1="-5.4" y1="-2.8" x2="9.8" y2="3.2" stroke="#d8d0b0" stroke-width="1.7" opacity="0.72" data-rts-animation="weaponVisualFacing:transform.rotation:1:0;weaponRecoilX:transform.x:1:0;weaponRecoilY:transform.y:1:0" />
  <line id="part.pzf.tube" x1="-3.8" y1="0" x2="18.8" y2="0" stroke="#2a2119" stroke-width="4.2" opacity="0.98" data-rts-animation="weaponVisualFacing:transform.rotation:1:0;weaponRecoilX:transform.x:1:0;weaponRecoilY:transform.y:1:0" />
  <rect id="part.pzf.rear" x="-7.2" y="-2.1" width="5.2" height="4.2" fill="#3b2a1c" fill-opacity="0.98" stroke="#1a1712" stroke-width="2" stroke-opacity="0.95" data-rts-animation="weaponVisualFacing:transform.rotation:1:0;weaponRecoilX:transform.x:1:0;weaponRecoilY:transform.y:1:0" />
  <polygon id="part.pzf.warhead" points="18.6,-3.5 25.8,-2.2 27.8,0 25.8,2.2 18.6,3.5" fill="#4d4635" stroke="#1a1712" stroke-width="2" stroke-opacity="0.95" data-rts-animation="weaponVisualFacing:transform.rotation:1:0;weaponRecoilX:transform.x:1:0;weaponRecoilY:transform.y:1:0;panzerfaustLoaded:visible:1:0" />
  <rect id="part.pzf.teamBand" x="12.4" y="-2.4" width="3.2" height="4.8" fill="#7b96c4" stroke="#1a1712" stroke-width="1.4" stroke-opacity="0.72" data-rts-tint="team-light-strong" data-rts-animation="weaponVisualFacing:transform.rotation:1:0;weaponRecoilX:transform.x:1:0;weaponRecoilY:transform.y:1:0" />
  <line id="part.pzf.grip" x1="1.2" y1="3.4" x2="1.2" y2="-3.4" stroke="#d8d0b0" stroke-width="2.5" opacity="0.86" data-rts-animation="weaponVisualFacing:transform.rotation:1:0;weaponRecoilX:transform.x:1:0;weaponRecoilY:transform.y:1:0" />
  <circle id="anchor.origin" cx="0" cy="0" r="1" fill="#ffffff" />
  <circle id="anchor.selection" cx="0" cy="0" r="1" fill="#ffffff" />
  <circle id="anchor.hp" cx="0" cy="-17" r="1" fill="#ffffff" />
  <circle id="anchor.muzzle" cx="27.8" cy="0" r="1" fill="#ffffff" />
  <rect id="bounds.selection" x="-13" y="-13" width="26" height="26" fill="none" />
  <rect id="bounds.hp" x="-11" y="-18" width="22" height="6" fill="none" />
</svg>
