<!-- Generated by scripts/art/tank-raster-pipeline.mjs make-sheet. -->
<svg xmlns="http://www.w3.org/2000/svg" width="480" height="576" viewBox="0 0 480 576" shape-rendering="crispEdges">
<rect x="0" y="0" width="480" height="576" fill="#ff00ff" />
<g transform="translate(120 96) scale(3 3)">
<polygon id="source.part.hull" points="-23.2,-11.4 19.2,-11.4 25.2,-7.4 25.2,7.4 19.2,11.4 -23.2,11.4 -25.2,7.4 -25.2,-7.4" fill="#5d7896" stroke="#100d0a" stroke-width="1.5" stroke-opacity="0.95" />
<rect id="source.part.hull.shadow" x="-16.49" y="-5.904" width="28.98" height="11.808" fill="#1a1712" fill-opacity="0.24" stroke="#100d0a" stroke-width="1.5" stroke-opacity="0.95" />
<rect id="source.part.hull.nose" x="14.7" y="-9.72" width="7" height="19.44" fill="#6381a0" fill-opacity="0.95" stroke="#100d0a" stroke-width="1.5" stroke-opacity="0.95" />
<rect id="source.part.hull.noseShadow" x="20.7" y="-8.64" width="3" height="17.28" fill="#1a1712" fill-opacity="0.22" stroke="#100d0a" stroke-width="1.5" stroke-opacity="0.95" />
<line id="source.part.barrel" x1="0" y1="0" x2="33.2" y2="0" stroke="#d8d0b0" stroke-width="5" opacity="0.95" />
<rect id="source.part.coaxBarrel" x="11.4" y="-6.0" width="5.2" height="0.9" fill="#74787d" stroke="#1a1712" stroke-width="0.6" opacity="0.95" />
<rect id="source.part.turret" x="-8.072" y="-6.48" width="18.144" height="12.96" fill="#6b8cac" stroke="#1a1712" stroke-width="2" stroke-opacity="0.95" />
<line id="source.part.noseTick" x1="18.2" y1="0" x2="23.2" y2="0" stroke="#d8d0b0" stroke-width="2" opacity="0.75" />
</g>
<g transform="translate(361.916451 134.009612) scale(3.194085 3.194085)">
</g>
<g transform="translate(120 288) scale(3.266541 3.266541)">
<polygon id="source.part.hull" points="-23.2,-11.4 19.2,-11.4 25.2,-7.4 25.2,7.4 19.2,11.4 -23.2,11.4 -25.2,7.4 -25.2,-7.4" fill="#5d7896" stroke="#100d0a" stroke-width="1.5" stroke-opacity="0.95" />
<rect id="source.part.hull.shadow" x="-16.49" y="-5.904" width="28.98" height="11.808" fill="#1a1712" fill-opacity="0.24" stroke="#100d0a" stroke-width="1.5" stroke-opacity="0.95" />
<rect id="source.part.hull.nose" x="14.7" y="-9.72" width="7" height="19.44" fill="#6381a0" fill-opacity="0.95" stroke="#100d0a" stroke-width="1.5" stroke-opacity="0.95" />
<rect id="source.part.hull.noseShadow" x="20.7" y="-8.64" width="3" height="17.28" fill="#1a1712" fill-opacity="0.22" stroke="#100d0a" stroke-width="1.5" stroke-opacity="0.95" />
<line id="source.part.noseTick" x1="18.2" y1="0" x2="23.2" y2="0" stroke="#d8d0b0" stroke-width="2" opacity="0.75" />
</g>
<g transform="translate(334.473016 288) scale(6.359488 6.359488)">
<rect id="source.part.coaxBarrel" x="11.4" y="-6.0" width="5.2" height="0.9" fill="#74787d" stroke="#1a1712" stroke-width="0.6" opacity="0.95" />
<rect id="source.part.turret" x="-8.072" y="-6.48" width="18.144" height="12.96" fill="#6b8cac" stroke="#1a1712" stroke-width="2" stroke-opacity="0.95" />
</g>
<g transform="translate(46.82449 480) scale(4.408163 4.408163)">
<line id="source.part.barrel" x1="0" y1="0" x2="33.2" y2="0" stroke="#d8d0b0" stroke-width="5" opacity="0.95" />
</g>
</svg>
